<?xml version="1.0" standalone="no"?>
<!DOCTYPE svg PUBLIC "-//W3C//DTD SVG 1.1//EN" "http://www.w3.org/Graphics/SVG/1.1/DTD/svg11.dtd" >
<!--
2013-9-30: Created.
-->
<svg>
<metadata>
Created by iconfont
</metadata>
<defs>

<font id="iconfont" horiz-adv-x="1024" >
  <font-face
    font-family="iconfont"
    font-weight="500"
    font-stretch="normal"
    units-per-em="1024"
    ascent="896"
    descent="-128"
  />
    <missing-glyph />
    
    <glyph glyph-name="x" unicode="x" horiz-adv-x="1001"
d="M281 543q-27 -1 -53 -1h-83q-18 0 -36.5 -6t-32.5 -18.5t-23 -32t-9 -45.5v-76h912v41q0 16 -0.5 30t-0.5 18q0 13 -5 29t-17 29.5t-31.5 22.5t-49.5 9h-133v-97h-438v97zM955 310v-52q0 -23 0.5 -52t0.5 -58t-10.5 -47.5t-26 -30t-33 -16t-31.5 -4.5q-14 -1 -29.5 -0.5
t-29.5 0.5h-32l-45 128h-439l-44 -128h-29h-34q-20 0 -45 1q-25 0 -41 9.5t-25.5 23t-13.5 29.5t-4 30v167h911zM163 247q-12 0 -21 -8.5t-9 -21.5t9 -21.5t21 -8.5q13 0 22 8.5t9 21.5t-9 21.5t-22 8.5zM316 123q-8 -26 -14 -48q-5 -19 -10.5 -37t-7.5 -25t-3 -15t1 -14.5
t9.5 -10.5t21.5 -4h37h67h81h80h64h36q23 0 34 12t2 38q-5 13 -9.5 30.5t-9.5 34.5q-5 19 -11 39h-368zM336 498v228q0 11 2.5 23t10 21.5t20.5 15.5t34 6h188q31 0 51.5 -14.5t20.5 -52.5v-227h-327z" />
    

    
    <glyph glyph-name="home" unicode="&#58880;" d="M931.008 293.344 545.984 678.496c-21.056 20.992-55.104 20.992-76.096 0L84.8 293.344C70.784 279.392 75.456 268 95.296 268h107.648v-286.976c0-29.76 24.128-53.888 53.824-53.888h161.408v215.296h179.456v-215.296h215.168V268h107.712C940.352 268 945.088 279.392 931.008 293.344z"  horiz-adv-x="1024" />

    
    <glyph glyph-name="xialajiantou" unicode="&#58891;" d="M830.429257 629.2864 778.7136 681.000229 512 414.2848 245.2864 681.000229 193.570743 629.2864 512 310.857143ZM512 121.713371 245.2864 388.4288 193.570743 336.714971 512 18.285714 830.429257 336.714971 778.7136 388.4288Z"  horiz-adv-x="1024" />

    
    <glyph glyph-name="search" unicode="&#58889;" d="M984.998219-91.30615c-83.992973 84.027765-203.032136 203.037253-217.729883 217.73193 51.809993 69.552076 82.47848 155.784042 82.47848 249.175059 0 230.603075-186.902784 417.48744-417.467997 417.48744S14.771937 606.204937 14.771937 375.601862c0-230.565213 186.942693-417.506882 417.506882-417.506882 94.600565 0 181.847651 31.476899 251.853052 84.519975 16.327874-16.134469 135.614677-134.045949 219.047902-217.443357 24.816199-24.818245 47.113017-24.585955 69.451792-2.213411 13.610996 13.537318 1.083681 1.048889 14.657838 14.617929C1010.166435-139.541735 1007.643985-113.95294 984.998219-91.30615zM431.657672 38.478751c-186.514951 0-337.742211 151.228283-337.742211 337.744257 0 186.552813 151.22726 337.704348 337.742211 337.704348 186.515974 0 337.744257-151.151535 337.744257-337.704348C769.401929 189.708058 618.173646 38.478751 431.657672 38.478751z"  horiz-adv-x="1024" />

    
    <glyph glyph-name="shanglajiantou" unicode="&#58897;" d="M193.570743 138.711771 245.2864 86.999771 512 353.7152 778.7136 86.999771 830.431086 138.7136 512 457.142857ZM512 646.286629 778.7136 379.5712 830.431086 431.285029 512 749.714286 193.570743 431.285029 245.2864 379.5712Z"  horiz-adv-x="1024" />

    
    <glyph glyph-name="msnui-list-square" unicode="&#59089;" d="M128 704h128v-128h-128v128zM320 704h576v-128h-576v128zM128 448h128v-128h-128v128zM320 448h576v-128h-576v128zM128 192h128v-128h-128v128zM320 192h576v-128h-576v128z"  horiz-adv-x="1024" />

    
    <glyph glyph-name="tianjia" unicode="&#59208;" d="M675.04 328.736l-127.04 0 0 127.264c0 20.064-16.288 36.32-36.32 36.32-20.064 0-36.32-16.192-36.32-36.32l0-127.232-127.072 0c-20.064 0-36.352-16.32-36.352-36.352 0-20.064 16.224-36.352 36.352-36.352l127.072 0 0-127.232c0-20 16.256-36.384 36.32-36.384 20.032 0 36.32 16.256 36.32 36.384l0 127.136 127.04 0c19.968 0 36.352 16.256 36.352 36.384C711.36 312.448 695.136 328.736 675.04 328.736L675.04 328.736zM511.328 746.56c-250.24 0-453.952-203.616-453.952-453.952 0-250.336 203.712-453.952 453.952-453.952 250.336 0 453.984 203.584 453.984 453.952C965.312 542.944 761.696 746.56 511.328 746.56L511.328 746.56zM511.328-104.576c-219.04 0-397.184 178.176-397.184 397.152 0 219.104 178.144 397.216 397.184 397.216s397.216-178.112 397.216-397.216C908.576 73.632 730.368-104.576 511.328-104.576L511.328-104.576zM511.328-104.576"  horiz-adv-x="1024" />

    
    <glyph glyph-name="8" unicode="&#58887;" d="M827.587632 177.366985c12.07706 33.885761 19.087731 70.168106 19.945261 108.075461 4.341888 1.370207 8.909927 2.742461 13.0799 4.100388 46.38033 15.122419 81.817424 29.709649 99.547227 42.215474l-14.108323 81.256652c-19.09694 5.111414-52.604078 6.755868-95.421256 5.545296-8.250918-0.229221-17.076934-0.641613-25.989931-1.081635-12.447497 32.305777-29.474288 62.22725-50.483788 88.86391 4.820796 7.604188 9.576099 15.150048 13.895475 22.281469 22.438035 37.052894 37.795814 67.344804 42.982954 86.693478l-62.241576 53.03796c-17.86181-8.54563-44.568055-29.163203-76.601632-58.034764-6.122441-5.517667-12.570293-11.54801-19.060101-17.639752-29.325909 16.317641-61.309344 28.28623-95.129614 35.129078-1.109264 8.890484-2.231831 17.702174-3.428076 25.911136-6.262634 43.030026-13.671371 76.259848-21.947871 94.468558l-81.248466 0c-8.27957-18.20871-15.685237-51.438533-21.950941-94.468558-1.196245-8.209986-2.318812-17.020652-3.428076-25.911136-33.821293-6.842849-65.804728-18.810415-95.129614-35.129078-6.489808 6.091742-12.93766 12.122085-19.057031 17.639752-32.036647 28.871561-58.742892 49.489134-76.604702 58.034764l-62.241576-53.03796c5.187139-19.348674 20.544919-49.640584 42.982954-86.693478 4.319375-7.131421 9.074679-14.676257 13.898545-22.281469-21.012569-26.63666-38.039361-56.559157-50.485835-88.86391-8.911974 0.440022-17.73799 0.851391-25.989931 1.081635-42.817178 1.209548-76.324316-0.433882-95.421256-5.545296l-14.108323-81.256652c17.729803-12.505825 53.166897-27.093055 99.549274-42.215474 4.167926-1.357927 8.735965-2.731204 13.077853-4.100388 0.857531-37.907355 7.868201-74.190723 19.945261-108.075461-0.493234-0.394996-0.954745-0.751107-1.444908-1.151219-27.952632-22.659069-57.410548-47.004547-91.163279-74.509994l40.627303-71.456449c40.327474 15.925714 75.825966 29.664623 109.126396 42.918485 0.520863 0.207731 0.9967 0.409322 1.518586 0.6191 24.930809-30.05655 54.953589-55.503105 88.60706-75.355245-0.12075-0.599657-0.243547-1.14815-0.361227-1.750877-7.075139-35.624359-14.237259-73.523527-22.687722-116.64872l76.352969-28.221762c20.813025 38.529525 39.308261 72.223928 56.42715 104.115266 0.304945 0.565888 0.571005 1.091868 0.876973 1.657756 18.785855-3.308349 37.994336-5.380544 57.712423-5.380544 19.718087 0 38.924521 2.072195 57.709353 5.380544 0.304945-0.565888 0.571005-1.092891 0.876973-1.657756 17.121959-31.891338 35.613102-65.585741 56.42715-104.115266l76.352969 28.221762c-8.450463 43.125193-15.612583 81.024361-22.684652 116.64872-0.12075 0.601704-0.243547 1.151219-0.364297 1.750877 33.652448 19.853164 63.675228 45.298695 88.60706 75.355245 0.520863-0.209778 0.9967-0.411369 1.518586-0.6191 33.30043-13.253862 68.798922-26.992771 109.126396-42.918485l40.627303 71.456449c-33.750685 27.504424-63.210647 51.849902-91.163279 74.509994C828.542376 176.615878 828.079842 176.971989 827.587632 177.366985zM512.004093 73.848307c-123.752512 0-224.072335 100.518345-224.072335 224.512357s100.319823 224.509287 224.072335 224.509287c123.749442 0 224.072335-100.516298 224.072335-224.509287S635.753535 73.848307 512.004093 73.848307z"  horiz-adv-x="1024" />

    
    <glyph glyph-name="fujian" unicode="&#58882;" d="M867.202884 184.823817c13.599739 13.703093 13.57825 35.83209-0.088004 49.496298-13.663184 13.663184-35.793204 13.68672-49.494251 0.085958l-0.433882 0.431835L553.450041-28.898799c-82.149998-65.541739-202.545042-60.341297-278.57567 15.686261-76.030627 76.031651-81.238232 196.434881-15.696494 278.587949l384.151193 394.235876c51.628868 33.345456 121.42449 27.451212 166.605505-17.730826 45.175899-45.176922 51.068096-114.968451 17.71957-166.596296L484.156862 130.886371c-1.808182-2.838651-3.921309-5.53711-6.396687-8.013511-18.323321-18.324344-48.140417-18.326391-66.466808 0-18.326391 18.326391-18.328437 48.14451-0.00307 66.469877 2.475378 2.476401 5.176906 4.588505 8.013511 6.396687l270.477224 272.738731c1.082658 0.850367 2.134617 1.75497 3.13234 2.75167 13.694907 13.693884 13.694907 35.896558 0 49.589418-13.691837 13.69286-35.894512 13.69286-49.589418 0-0.401136-0.403183-0.75213-0.836041-1.1328-1.25355l-0.061398 0.060375L368.772948 246.269261c-2.578732-2.173502-5.104251-4.445242-7.534604-6.873548-45.922912-45.922912-45.922912-120.647801 0.002047-166.573783 45.923936-45.922912 120.647801-45.922912 166.571736 0 2.430352 2.428306 4.701069 4.955872 6.872524 7.53665L878.4306 424.510782c60.521398 79.929424 54.404074 194.573487-18.443048 267.422655C787.131221 764.787722 672.484088 770.90607 592.553641 710.385694L208.873168 315.681144c-93.01137-109.983927-87.704504-275.290857 15.94925-378.945635C327.425238-165.865263 490.433822-172.083895 600.399329-81.973598l0.274246-0.311085 266.818905 266.817881L867.202884 184.823817z"  horiz-adv-x="1024" />

    
    <glyph glyph-name="guanbi01" unicode="&#59019;" d="M957.116 654.141l-81.406 81.394-366.278-366.28-366.28 366.28-81.404-81.394 366.278-366.29-366.278-366.303 81.404-81.381 366.28 366.29 366.278-366.29 81.406 81.381-366.28 366.303z"  horiz-adv-x="1024" />

    
    <glyph glyph-name="iconfonttianjia" unicode="&#58895;" d="M512 703.393939C300.606061 703.393939 129.292929 532.080808 129.292929 320.686869c0-211.393939 171.313131-382.707071 382.707071-382.707071 211.393939 0 382.707071 171.313131 382.707071 382.707071C894.707071 532.080808 723.393939 703.393939 512 703.393939zM741.365657 131.143434l-42.408081-40.339394L512.646465 265.737374 332.541414 90.80404l-40.985859 40.339394 185.406061 179.975758L291.555556 491.094949l40.985859 40.339394 180.234343-174.933333L699.086869 531.434343l42.408081-40.339394L549.624242 311.119192 741.365657 131.143434z"  horiz-adv-x="1024" />

    
    <glyph glyph-name="bofanganniu" unicode="&#58945;" d="M512-212C229.227-212 0 17.227 0 300S229.227 812 512 812s512-229.227 512-512S794.773-212 512-212zM512 718.955c-245.091 0-418.909-173.841-418.909-418.909 0-245.044 173.818-418.91 418.909-418.91 245.045 0 418.909 173.865 418.909 418.91C930.909 545.114 757.045 718.955 512 718.955zM372.364 532.773l372.364-232.727L372.364 67.319C372.364 76.136 372.364 499.227 372.364 532.773z"  horiz-adv-x="1024" />

    
    <glyph glyph-name="jiantoushang" unicode="&#59072;" d="M514.009264 419.163614l-376.015262-387.547934-73.298473 75.570215 447.304983 461.195355 447.304983-461.195355-71.376702-73.56044L514.009264 419.163614 514.009264 419.163614zM514.009264 419.163614"  horiz-adv-x="1024" />

    
    <glyph glyph-name="chartbar" unicode="&#59011;" d="M870.4 844.8c15.019008 0 27.307008-5.12 36.864-15.36 9.556992-10.24 14.336-22.187008 14.336-35.84 0 0 0-870.4 0-870.4 0 0-204.8 0-204.8 0 0 0 0 870.4 0 870.4 0 34.132992 13.652992 51.2 40.96 51.2 0 0 112.64 0 112.64 0 0 0 0 0 0 0m-307.2-307.2c15.019008 0 27.307008-5.12 36.864-15.36 9.556992-10.24 14.336-22.187008 14.336-35.84 0 0 0-563.2 0-563.2 0 0-204.8 0-204.8 0 0 0 0 563.2 0 563.2 0 34.132992 13.652992 51.2 40.96 51.2 0 0 112.64 0 112.64 0 0 0 0 0 0 0m-307.2-307.2c15.019008 0 27.307008-5.12 36.864-15.36 9.556992-10.24 14.336-22.187008 14.336-35.84 0 0 0-256 0-256 0 0-204.8 0-204.8 0 0 0 0 256 0 256 0 34.132992 13.652992 51.2 40.96 51.2 0 0 112.64 0 112.64 0 0 0 0 0 0 0"  horiz-adv-x="1024" />

    
    <glyph glyph-name="shoucang" unicode="&#58997;" d="M729.095945 266.08852l52.357462-320.689836-274.317693 151.46569-274.317693-151.46569 52.357462 320.689836L64.04413 492.503203l305.689191 46.642297L507.135714 831.582875l137.402393-292.437375 305.689191-46.642297L729.095945 266.08852z"  horiz-adv-x="1024" />

    
    <glyph glyph-name="weiduyoujian" unicode="&#59028;" d="M502.746754 286.840146 383.229706 399.416108 114.107339 64.761212l795.784298 0L641.933793 402.750039 502.746754 286.840146zM928.39813 703.238788 95.600847 703.238788l407.145907-360.878141L928.39813 703.238788zM678.557922 434.89311l268.345678-342.372671L946.903599 656.973068 678.557922 434.89311zM77.094354 647.71931l0-555.198871 259.09192 333.118913L77.094354 647.71931z"  horiz-adv-x="1024" />

    
    <glyph glyph-name="fav-1" unicode="&#58883;" d="M958.843 501.368l-309.22 44.95-138.304 280.179-138.309-280.179-309.22-44.95 223.726-218.098-52.783-307.97 276.585 145.397 276.579-145.397-52.783 307.97 223.727 218.098zM511.32 189.827l-195.365-102.686 37.342 217.472-157.986 154.049 218.379 31.739 97.63 197.866 97.66-197.887 218.345-31.739-157.988-154.029 37.344-217.506-195.36 102.721zM511.32 189.827z"  horiz-adv-x="1024" />

    
    <glyph glyph-name="yuan" unicode="&#59228;" d="M512 384m-505.429418 0a10 10 0 1 0 1010.858835 0 10 10 0 1 0-1010.858835 0Z"  horiz-adv-x="1024" />

    
    <glyph glyph-name="duihao" unicode="&#58912;" d="M512.064 896c-282.816 0-512.064-229.216-512.064-512s229.248-512 512.032-512 512.064 229.216 512.064 512-229.248 512-512.032 512zM513.824 212.864l-71.296-76.736-289.152 268.576 71.296 76.736 216.8-201.344 356.96 384.384 72.384-67.232-356.992-384.384z"  horiz-adv-x="1025" />

    
    <glyph glyph-name="doc" unicode="&#59033;" d="M16 10.080l574.912-101.984v951.792l-574.912-101.968v-747.84zM185.728 554.896l28.992-189.024 42.432 189.024h80.224l42.528-188.768 29.024 188.768h80.096l-60.48-337.632h-83.136l-48.112 212.576-47.936-212.576-83.12-0-61.040 337.632h80.528zM613.456 769.248v-101.984h315.632v-45.328l-315.632-0v-56.656h315.632v-45.328h-315.632v-56.656h315.632v-45.328l-315.632 0v-56.656h315.632v-45.328h-315.632v-56.656h315.632v-45.328l-315.632-0v-56.656h315.632v-45.328l-315.632-0v-113.312h394.544v770.544h-394.544z"  horiz-adv-x="1024" />

    
    <glyph glyph-name="bodadianhua" unicode="&#58892;" d="M807.210535 269.60153l-1.461281 1.687432-92.15998 70.450539 0-0.229221-1.461281 0.706081c-6.475482 4.900613-12.885472 8.097422-20.324908 10.277064l-1.991354 0.508583c-20.791535 5.603625-44.10552 0.474814-60.444651-13.966083l-1.029446-0.951675c-3.453658-2.457981-5.91164-5.377474-7.904017-8.082072-0.49835-1.24434-1.959631-2.669806-2.456958-3.669576l-19.86135-26.687826c-1.459235 0.265036-3.950985 1.017166-5.91164 2.476401-41.149189 28.586059-77.796854 64.828494-106.539478 105.906052-1.496074 2.425236-2.490727 4.14746-3.488451 5.622044 15.34243 10.751878 35.70213 22.471804 46.080501 38.650275 15.359826 22.258956 13.401218 52.092425-1.444908 73.107041l-1.494027 2.460028-71.40426 90.7427-2.456958 1.688455c-5.960759 5.869684-10.892071 10.770298-17.352203 14.933107l-1.976004 0.951675c-33.69338 19.34151-68.864414 2.213411-89.188298-24.930809-11.889795-14.933107-19.827581-31.55467-25.291013-48.157813-9.399067-26.669406-12.869099-54.305837-12.387122-81.467453 1.013073-28.851095 6.459109-57.69912 15.377222-86.056981 9.896394-28.620851 23.281239-56.043411 40.135092-81.940221 17.336854-26.424836 37.661761-51.848878 60.46-74.829266 22.815635-22.048155 48.555879-42.341341 75.806523-59.69866 25.752524-16.129352 54.016241-29.586852 82.744539-38.651298 28.758997-9.801227 57.985646-15.161305 86.74669-15.883759 27.232225-0.50756 54.465472 3.163039 80.770582 11.507078l1.991354 0.705058c22.25077 6.836709 43.605124 18.60473 60.939931 34.472116 24.777313 22.783913 27.732621 62.647829 6.411013 88.808652C813.689087 263.732869 811.196313 266.421094 807.210535 269.60153zM735.871767 176.168558l-1.493004-0.49221c-21.788236-7.325849-44.071751-10.524704-66.39006-10.015098-25.273616 0.475837-50.547233 5.377474-75.321476 13.441127-24.777313 8.328689-49.517787 20.523429-73.315796 35.226293-24.790616 15.392572-47.589878 33.488719-68.895113 53.780881-20.308535 20.784372-38.641065 43.782156-54.018288 67.780733-15.34243 23.439852-27.730575 47.928592-35.669384 72.614831-8.419763 24.457018-12.885472 49.4042-13.367449 73.860195-1.014096 22.735817 1.977028 45.979194 9.400091 67.50137 7.438413 21.292955 28.262694 64.091714 55.994292 50.14098 1.974981-1.212618 4.947685-4.375657 8.43409-7.588839l70.358441-90.006943 0.9967-0.704035c7.455809-10.04989 4.931313-25.931602-5.446036-33.521464l-1.014096-0.951675-1.49505-1.261737-33.692357-23.949458c-2.955308-1.721201-5.445012-5.14723-6.891967-8.063653-1.511423-4.901637-4.001127-11.753695-3.486404-20.786419l0-0.523933c0.480954-7.590885 3.486404-18.079774 10.378371-28.356838 32.232099-45.257763 71.371514-84.122933 117.450992-116.184139 14.414291-9.770528 32.714076-13.441127 49.585325-6.327102 3.950985 1.951445 6.443759 4.131087 8.900717 6.819313l25.771967 35.226293 0.49835 0.984421c0.995677 0.75213 2.456958 1.703805 3.454682 2.916423l0.463558 0.509606c7.473205 6.342452 18.86465 7.343245 27.300786 2.916423 1.462305-0.473791 2.955308-1.949398 3.487428-2.424212l0.499373-0.49221 91.164303-69.960375 0.962931-0.474814 0.49835 0C813.187667 210.90264 758.224868 182.75865 735.871767 176.168558zM925.675624 798.379659c-20.825304 20.522406-50.049906 33.750685-81.766258 33.750685L236.892315 832.130344c-31.218002 0-60.477396-13.229303-81.748862-33.750685-20.840654-20.818141-34.208103-49.420573-34.208103-81.204463l0-35.242665-21.819958 0c-18.814508 0-34.672684-15.637142-34.672684-34.45472 0-19.080567 15.859199-34.274618 34.672684-34.274618l21.819958 0 0-106.857726-21.819958 0c-18.814508 0-34.672684-15.637142-34.672684-34.488489 0-19.080567 15.859199-34.470069 34.672684-34.470069l21.819958 0 0-106.398262-21.819958 0c-18.814508 0-34.672684-15.900132-34.672684-34.751478 0-19.063171 15.859199-34.455743 34.672684-34.455743l21.819958 0 0-106.397239-21.819958 0c-18.814508 0-34.672684-15.916505-34.672684-34.963303 0-18.850323 15.859199-34.274618 34.672684-34.274618l21.819958 0 0-35.227316c0-31.537274 13.367449-60.156078 34.208103-80.678484 21.270443-21.310352 50.53086-34.013675 81.748862-34.013675l607.016027 0c32.214702 0 60.940954 12.966313 81.766258 34.013675 21.786189 20.522406 34.671661 49.14121 34.671661 80.678484L960.346261 717.175195C960.347285 748.450503 947.461813 777.562541 925.675624 798.379659zM889.973494 50.918949c0-12.7023-4.948709-23.948435-13.352099-32.275077-8.931416-8.29492-20.323884-13.196557-32.713053-13.196557l-607.016027 0c-12.404518 0-24.260543 4.90266-32.231075 13.196557-8.900717 8.326643-14.363126 19.572778-14.363126 32.275077l0 35.227316 21.802562 0c19.329231 0 35.20378 15.424294 35.20378 34.274618 0 19.047822-15.874549 34.963303-35.20378 34.963303L190.298114 155.384186 190.298114 261.781424l21.802562 0c19.329231 0 35.20378 15.393595 35.20378 34.455743 0 18.850323-15.874549 34.751478-35.20378 34.751478L190.298114 330.988646 190.298114 437.385884l21.802562 0c19.329231 0 35.20378 15.390525 35.20378 34.470069 0 18.851347-15.874549 34.488489-35.20378 34.488489L190.298114 506.344442 190.298114 613.203192l21.802562 0c19.329231 0 35.20378 15.19405 35.20378 34.274618 0 18.817578-15.874549 34.45472-35.20378 34.45472L190.298114 681.93253l0 35.242665c0 12.703323 5.463432 24.210401 14.363126 32.275077 7.971555 8.555863 19.826558 13.933337 32.231075 13.933337l607.016027 0c12.388145 0 24.310685-5.377474 32.713053-13.933337 8.402367-8.064676 13.352099-19.572778 13.352099-32.275077L889.973494 50.918949z"  horiz-adv-x="1024" />

    
    <glyph glyph-name="iconchexianjisuanqi" unicode="&#58886;" d="M877.287567 829.903629 146.71141 829.903629c-44.519959 0-80.615039-36.300764-80.615039-81.07348l0-729.660298c0-44.772716 36.09508-81.07348 80.615039-81.07348l730.576157 0c44.519959 0 80.615039 36.300764 80.615039 81.07348L957.902606 748.830149C957.903629 793.602865 921.807526 829.903629 877.287567 829.903629zM917.595598 19.169851c0-22.38687-18.048051-40.536228-40.308031-40.536228L146.71141-21.366378c-22.25998 0-40.308031 18.150382-40.308031 40.536228L106.403379 748.830149c0 22.38687 18.047028 40.536228 40.308031 40.536228l730.576157 0c22.25998 0 40.308031-18.150382 40.308031-40.536228L917.595598 19.169851zM233.774301 575.245695l278.69028 0 0-55.741535L233.774301 519.50416 233.774301 575.245695 233.774301 575.245695zM233.774301 575.245695M345.253278 686.719556l55.737442 0 0-278.689257-55.737442 0L345.253278 686.719556 345.253278 686.719556zM345.253278 686.719556M301.05873 337.951221 498.123968 140.889053l-39.414685-39.409568L261.648139 298.540629 301.05873 337.951221 301.05873 337.951221zM301.05873 337.951221M498.123968 298.53142 301.0618 101.471298l-39.409568 39.415708L458.712353 337.947128 498.123968 298.53142 498.123968 298.53142zM498.123968 298.53142M596.070744 575.245695l222.951815 0 0-55.741535L596.070744 519.50416 596.070744 575.245695 596.070744 575.245695zM596.070744 575.245695M596.070744 296.555415l222.951815 0 0-55.737442L596.070744 240.817973 596.070744 296.555415 596.070744 296.555415zM596.070744 296.555415M596.070744 185.080531l222.951815 0 0-55.741535L596.070744 129.338996 596.070744 185.080531 596.070744 185.080531zM596.070744 185.080531"  horiz-adv-x="1024" />

    
    <glyph glyph-name="shuaxin" unicode="&#58922;" d="M320.067666 609.562269c53.150524 53.15564 126.532835 86.077447 207.455889 86.077447 89.598644 0 172.483376-40.805358 227.39501-108.063181l-101.596909-101.603049 251.597225 0L904.918881 737.575828l-90.333378-90.361007C743.985562 729.792561 639.765919 779.506822 527.524578 779.506822c-104.055914 0-198.409862-42.322921-266.757506-110.670565-49.444109-49.455365-84.98865-112.251573-100.999298-182.862771l86.263689 0C260.052804 533.647275 285.750069 575.255928 320.067666 609.562269L320.067666 609.562269zM734.974327 194.655607c-53.151547-53.15564-126.533858-86.083587-207.450772-86.083587-89.599667 0-172.488493 40.810474-227.402173 108.069321l101.603049 101.596909L150.122089 318.23825 150.122089 66.641025l90.333378 90.333378c70.601988-82.555228 174.820608-132.270513 287.067065-132.270513 104.055914 0 198.402699 42.306548 266.750343 110.650099 49.360198 49.397037 84.866876 112.477724 100.920504 182.883237L808.689213 318.237227C794.560424 271.00346 768.983909 228.661096 734.974327 194.655607L734.974327 194.655607z"  horiz-adv-x="1024" />

    
    <glyph glyph-name="wenhao1" unicode="&#58958;" d="M512.128 218.624c-19.296 0-38.496-7.936-52.16-21.568s-21.6-32.8-21.6-52.064 7.936-38.464 21.6-52.064c13.632-13.632 32.832-21.568 52.16-21.568s38.496 7.936 52.16 21.568c13.632 13.632 21.6 32.8 21.6 52.064s-7.936 38.464-21.6 52.064c-13.632 13.632-32.832 21.568-52.16 21.568zM511.36 682.688c-49.728 0-89.92-15.232-120.544-45.632-30.624-30.464-48.48-72.416-49.472-111.072s80.64-30.624 83.648-11.552c3.2 20.224 16.576 52.896 32.16 67.68s35.008 22.208 58.176 22.208c24.064 0 43.2-7.104 57.376-21.312s21.312-31.296 21.312-51.2c0-14.368-4.032-27.52-12-39.456-5.184-7.552-21.12-23.488-47.68-47.84s-44.352-46.272-53.184-65.728-13.312-44.288-13.312-74.496c0-2.88 0.096-11.072 0.32-24.448l82.784 0c-0.448 28.224 1.696 47.84 6.336 58.784 4.64 10.976 16.576 25.472 35.776 43.456 37.12 34.784 61.376 62.336 72.736 82.496 11.328 20.192 16.96 41.664 16.96 64.288 0 40.896-15.424 76.768-46.4 107.584s-72.576 46.24-124.928 46.24zM512 896c-282.208 0-512-229.664-512-512.032s229.728-511.968 512-511.968c282.304 0 512 229.6 512 511.968s-229.632 512.032-512 512.032zM511.68-62.912c-246.848 0-447.584 200.768-447.584 447.456 0 246.848 200.768 447.552 447.584 447.552s447.648-200.672 447.648-447.552c0.032-246.72-200.8-447.456-447.648-447.456z"  horiz-adv-x="1024" />

    
    <glyph glyph-name="pdf" unicode="&#59023;" d="M623.307397 2.524932C623.307397 2.524932 623.307397 92.286247 623.307397 92.286247 623.307397 92.286247 934.954082 92.286247 934.954082 92.286247 934.954082 92.286247 934.954082 135.757151 934.954082 135.757151 934.954082 135.757151 623.307397 135.757151 623.307397 135.757151 623.307397 135.757151 623.307397 204.47737 623.307397 204.47737 623.307397 204.47737 934.954082 204.47737 934.954082 204.47737 934.954082 204.47737 934.954082 247.962301 934.954082 247.962301 934.954082 247.962301 623.307397 247.962301 623.307397 247.962301 623.307397 247.962301 623.307397 316.682521 623.307397 316.682521 623.307397 316.682521 934.954082 316.682521 934.954082 316.682521 934.954082 316.682521 934.954082 360.167452 934.954082 360.167452 934.954082 360.167452 623.307397 360.167452 623.307397 360.167452 623.307397 360.167452 623.307397 428.887671 623.307397 428.887671 623.307397 428.887671 934.954082 428.887671 934.954082 428.887671 934.954082 428.887671 934.954082 472.358575 934.954082 472.358575 934.954082 472.358575 623.307397 472.358575 623.307397 472.358575 623.307397 472.358575 623.307397 541.078795 623.307397 541.078795 623.307397 541.078795 934.954082 541.078795 934.954082 541.078795 934.954082 541.078795 934.954082 584.549699 934.954082 584.549699 934.954082 584.549699 623.307397 584.549699 623.307397 584.549699 623.307397 584.549699 623.307397 654.672658 623.307397 654.672658 623.307397 654.672658 934.954082 654.672658 934.954082 654.672658 934.954082 654.672658 934.954082 698.157589 934.954082 698.157589 934.954082 698.157589 623.307397 698.157589 623.307397 698.157589 623.307397 698.157589 623.307397 765.475068 623.307397 765.475068 623.307397 765.475068 1024 765.475068 1024 765.475068 1024 765.475068 1024 2.524932 1024 2.524932 1024 2.524932 623.307397 2.524932 623.307397 2.524932ZM0 256.841644C0 256.841644 0 787.203507 0 787.203507 0 787.203507 577.395726 896 577.395726 896 577.395726 896 577.395726 222.53063 577.395726 222.53063 577.395726 222.53063 577.395726-128 577.395726-128 577.395726-128 0-19.203507 0-19.203507 0-19.203507 0 256.841644 0 256.841644ZM40.707507 151.131178C43.555068 145.08537 53.514521 122.346959 76.266959 137.15989 110.353534 172.312548 139.726904 213.04811 161.567562 267.32011 218.448658 283.297315 274.319781 295.61337 336.980164 313.147616 354.794959 309.107726 433.039781 258.581041 512.785534 273.071342 523.502466 275.568219 523.067616 281.361534 522.24 287.744 480.620712 300.438795 446.870795 290.17074 395.797041 315.167562 389.316384 317.047233 390.719123 316.949041 387.226301 318.828712 384.813589 320.694356 383.873753 321.956822 387.689205 323.471781 440.26389 325.281315 488.027178 322.419726 526.98126 312.221808 490.061151 382.863781 415.04263 329.601753 353.504438 345.480767 272.412055 366.395616 228.871014 491.379726 253.699507 570.171616 246.755945 554.432877 243.950466 536.870575 240.163068 520.444493 237.666192 513.388712 235.926795 512.406795 234.692384 515.506849 224.508493 563.073753 214.380712 615.620384 227.173699 649.15989 229.656548 651.011507 236.572055 653.101589 238.465753 650.997479 248.158685 640.252493 250.894027 635.062356 253.699507 609.630685 257.500932 599.054027 260.348493 603.893479 261.386521 615.157479 262.761205 629.998466 258.146192 643.983781 250.978192 657.057315 245.70389 666.652055 235.926795 667.942575 223.428384 663.187288 217.059945 660.760548 212.851726 655.430137 208.57337 646.101918 195.752329 579.864548 224.129753 524.792986 215.979836 466.018192 204.449315 383.03211 106.467945 181.710904 56.418192 151.341589 65.830575 201.994521 96.789041 215.250411 119.822027 250.641534 85.931836 233.934904 53.851178 209.316822 42.236493 170.839671 38.056329 156.980603 38.940055 156.363397 40.707507 151.131178Z"  horiz-adv-x="1024" />

    
    <glyph glyph-name="jiahao" unicode="&#58911;" d="M960.621531 320.208115 571.769268 320.208115l0-382.755404-120.688733 0L451.080535 320.208115 64.875566 320.208115 64.875566 447.792908l386.204969 0L451.080535 830.548312l120.688733 0 0-382.755404 388.853285 0L960.622554 320.208115z"  horiz-adv-x="1024" />

    
    <glyph glyph-name="zuojiantou" unicode="&#58890;" d="M751.172241 10.649803l-373.701191 373.701191 372.999203 372.999203c1.784646 1.784646 1.930979 4.530177 0.328481 6.133697l-63.652715 63.652715c-1.603521 1.603521-4.349051 1.456165-6.133697-0.328481L241.786789 387.582595c-1.784646-1.784646-1.930979-4.530177-0.328481-6.133697l1.030469-1.030469 62.622246-62.622246 376.60431-376.60431c1.784646-1.784646 4.5312-1.930979 6.133697-0.328481l63.652715 63.652715C753.104243 6.119627 752.956887 8.865157 751.172241 10.649803z"  horiz-adv-x="1024" />

    
    <glyph glyph-name="iconfonthuchudianhuatianchong" unicode="&#58929;" d="M877.985 57.298c33.215 57.799 14.818 102.194-44.001 146.613-69.141 52.216-136.712 87.342-185.299 31.078 0 0-51.564-61.381-203.298 82.258-176.442 168.193-102.389 227.844-102.389 227.844 61.367 61.695 22.355 107.715-29.111 177.42-51.46 69.699-103.448 91.765-178.080 31.814-143.819-115.526 58.972-386.781 161.508-492.259l-0.005-0.005c0 0 155.916-161.276 254.029-214.962l52.485-29.348c75.285-38.634 159.84-56.318 219.374-20.446 0.001 0 28.696 14.762 54.788 59.995v0zM678.265 510.456c35.852 37.532 60.26 59.445 76.917 73.168 101.901 84.014 182.876 49.137 182.876 49.137-139.277 145.735-341.921-36.168-341.921-36.168l-66.127 69.151-53.378-285.933 273.118 55.808-71.485 74.837zM678.265 510.456z"  horiz-adv-x="1024" />

    
    <glyph glyph-name="quanping" unicode="&#58982;" d="M415.712 691.231v86.341h-297.183v-297.184h86.34v156.455l207.149-207.15 61.053 61.053-200.484 200.484zM412.021 339.57l-207.15-207.151v156.455h-86.34v-297.182h297.183v86.34h-143.125l200.484 200.484zM818.439 776.94h-210.844v-86.34h143.126l-200.484-200.484 61.051-61.053 207.151 207.15v-156.455h86.34v297.183zM818.439 131.786l-207.151 207.151-61.051-61.052 200.484-200.485h-143.126v-86.34h297.184v297.183h-86.34z"  horiz-adv-x="1024" />

    
    <glyph glyph-name="chakan" unicode="&#59029;" d="M516.062 716.291c-363.694 0-509.171-363.695-509.171-363.695s145.477-363.695 509.171-363.695c363.695 0 509.173 363.695 509.173 363.695s-145.478 363.695-509.173 363.695zM516.062 134.381c-120.473 0-218.215 97.669-218.215 218.215s97.743 218.217 218.215 218.217c120.475 0 218.218-97.67 218.218-218.217s-97.743-218.215-218.218-218.215zM625.171 352.596c0-60.238-48.873-109.107-109.109-109.107-60.235 0-109.107 48.869-109.107 109.107 0 60.236 48.873 109.108 109.107 109.108 60.238 0.001 109.109-48.871 109.109-109.108z"  horiz-adv-x="1024" />

    
    <glyph glyph-name="qingkong" unicode="&#59443;" d="M511.999488 831.995267c-247.361761 0-447.88782-200.527083-447.88782-447.888843s200.526059-447.888843 447.88782-447.888843c247.362784 0 447.888843 200.527083 447.888843 447.888843S759.361249 831.995267 511.999488 831.995267L511.999488 831.995267zM728.448192 221.800851l-54.143131-54.138014-162.305573 162.306596-162.306596-162.306596-54.141084 54.138014 162.305573 162.305573-162.305573 162.306596 54.101175 54.143131 162.336272-162.321946 162.315806 162.321946 54.143131-54.143131-162.321946-162.316829L728.448192 221.800851 728.448192 221.800851zM728.448192 221.800851"  horiz-adv-x="1024" />

    
    <glyph glyph-name="jpg" unicode="&#59466;" d="M137.747674-127.998907 137.747674 895.998907 604.779257 895.998907 604.779257 616.324619 886.252326 616.324619 886.252326-127.998907 137.747674-127.998907ZM835.512731 477.009842 188.487269 477.009842 188.487269-77.592622 835.512731-77.592622 835.512731 477.009842ZM287.495596 160.411378C287.595042 148.358675 289.235364 140.139582 292.427489 135.774862 295.621799 131.409049 299.811668 129.363292 305.010209 129.619012 310.209843 129.363292 314.41064 131.409049 317.602764 135.774862 320.794889 140.139582 322.436304 148.358675 322.525915 160.411378L322.525915 347.792714 390.251199 347.792714 390.251199 169.841315C390.200929 138.998679 383.025478 116.908432 368.713918 103.546531 354.419843 90.194466 333.298927 83.676893 305.376303 83.991625 277.216538 84.099814 256.943649 91.296028 244.539059 105.582453 232.144303 119.8656 226.075878 140.562503 226.332691 167.66879L226.332691 173.105566 287.495596 173.105566 287.495596 160.411378ZM573.344313 324.933122C585.53034 310.176785 591.570351 291.231671 591.461069 268.087946 591.351787 241.58271 584.017878 221.553519 569.470269 208.016768 554.929216 194.488759 533.846549 187.684867 506.2321 187.646618L482.520109 187.646618 482.520109 89.065584 414.793733 89.065584 414.793733 347.792714 516.440124 347.792714C542.18913 347.300946 561.1561 339.680718 573.344313 324.933122ZM514.84898 291.52564C510.402298 296.717624 503.878168 299.293398 495.278773 299.273728L482.520109 299.273728 482.520109 236.164512 495.278773 236.164512C503.878168 236.12517 510.402298 238.662697 514.84898 243.782555 519.288011 248.905691 521.531569 256.888735 521.55124 267.724038 521.531569 278.400881 519.288011 286.32382 514.84898 291.52564ZM616.141298 291.791195C621.30159 311.759187 630.918399 326.920961 644.992818 337.262309 659.059586 347.615678 679.301876 352.816404 705.741544 352.864488 730.204302 353.170478 749.942802 346.514116 764.926446 332.896496 779.931946 319.299639 787.630858 296.963508 788.055964 265.905586L722.514133 265.905586C722.523968 272.442831 722.228907 278.23368 721.646435 283.268298 721.060683 288.311658 720.131787 292.548518 718.866303 296.009477 717.601911 299.647472 715.664342 302.428697 713.075454 304.347687 710.486565 306.264492 707.184065 307.226173 703.179976 307.246937 695.876665 307.443644 690.470489 304.955295 686.962539 299.764404 683.452404 294.583348 681.17934 285.508577 680.132419 272.552113 679.104076 259.582535 678.638535 241.552111 678.747817 218.419314 678.64837 195.304002 679.094241 177.26265 680.082149 164.306186 681.071151 151.347536 683.225097 142.272765 686.526504 137.091709 689.829004 131.910653 694.899685 129.413562 701.718877 129.619012 708.884492 129.039817 714.449127 132.450506 718.412783 139.816108 722.376438 147.179523 724.471372 161.926026 724.698679 184.018458L700.631521 184.018458 700.631521 229.645845 788.055964 229.645845 788.055964 89.065584 742.17395 89.065584 739.989405 111.873814C735.107781 101.049439 727.485368 93.635754 717.127627 89.644778 706.769887 85.65271 695.670122 83.776339 683.858932 83.991625 661.261617 84.070308 644.578639 89.349717 633.815463 99.829853 623.042451 110.319825 616.103049 125.560281 612.989608 145.545759 609.86633 165.534515 608.481728 189.828978 608.837987 218.419314 608.541833 247.36263 610.983192 271.813367 616.141298 291.791195ZM637.347455 895.998907 886.252326 648.733265 637.347455 648.733265 637.347455 895.998907Z"  horiz-adv-x="1024" />

    
    <glyph glyph-name="png" unicode="&#59470;" d="M137.747674-127.998907 137.747674 895.998907 604.779257 895.998907 604.779257 616.32134 886.252326 616.32134 886.252326-127.998907 137.747674-127.998907ZM835.512731 477.010935 188.487269 477.00547 188.487269-77.592622 835.512731-77.592622 835.512731 477.010935ZM391.342925 309.392141C402.168392 296.25864 407.53632 279.396439 407.441245 258.798983 407.343984 235.209388 400.824225 217.395342 387.898359 205.345918 374.964844 193.297586 356.221902 187.25211 331.670626 187.207305L310.591237 187.207305 310.591237 99.471408 250.382363 99.471408 250.382363 329.73497 340.747582 329.73497C363.647608 329.306585 380.508716 322.525642 391.342925 309.392141ZM339.333474 279.659809C335.379654 284.279156 329.580063 286.580633 321.944535 286.555498L310.591237 286.555498 310.591237 230.388963 321.944535 230.388963C329.580063 230.352899 335.379654 232.610664 339.333474 237.178648 343.287294 241.728055 345.274039 248.833565 345.290432 258.476602 345.274039 267.977572 343.287294 275.039369 339.333474 279.659809ZM533.023656 187.837861 533.673883 329.73497 589.989042 329.73497 589.989042 99.471408 523.946699 99.471408 483.746253 241.701827 483.097118 99.471408 426.781959 99.471408 426.781959 329.73497 494.116014 329.73497 533.023656 187.837861ZM620.997787 279.895858C625.594184 297.676026 634.134566 311.167972 646.646253 320.373881 659.151383 329.586347 677.156672 334.205693 700.64245 334.260334 722.399387 334.521518 739.946785 328.597345 753.267158 316.488909 766.598459 304.378286 773.451529 284.497719 773.828551 256.855951L715.56271 256.855951C715.571453 262.675213 715.309176 267.828948 714.79118 272.308414 714.272091 276.797715 713.447012 280.57887 712.321408 283.648599 711.188155 286.886622 709.473522 289.371693 707.170951 291.068841 704.869474 292.774732 701.935255 293.64243 698.37485 293.651173 691.882411 293.834767 687.076192 291.611972 683.957286 287.001368 680.829638 282.379836 678.815572 274.304995 677.894325 262.771381 676.96215 251.239953 676.550158 235.184253 676.653975 214.603189 676.56655 194.023218 676.96215 177.976261 677.840777 166.433905 678.720497 154.911219 680.635116 146.835285 683.570428 142.214846 686.505741 137.603149 691.01362 135.380354 697.085323 135.565041 703.446624 135.057973 708.383981 138.085082 711.917065 144.637626 715.440314 151.191263 717.303571 164.318207 717.50465 183.986767L696.109436 183.986767 696.109436 224.586093 773.828551 224.586093 773.828551 99.471408 733.04891 99.471408 731.748455 119.770525C726.75755 110.137324 719.982071 103.539974 710.773976 99.995962 701.565882 96.444299 691.706467 94.763543 681.189175 94.956972 661.103158 95.026913 646.277973 99.724943 636.709248 109.06199 627.131781 118.389202 620.962816 131.951088 618.195798 149.739999 615.418945 167.537652 614.18843 189.149245 614.495512 214.603189 614.241978 240.354381 616.412317 262.115689 620.997787 279.895858ZM637.347455 895.998907 886.252326 648.728893 637.347455 648.728893 637.347455 895.998907Z"  horiz-adv-x="1024" />

    
    <glyph glyph-name="jiantouxia" unicode="&#58909;" d="M511.142469 128.848832l448.198905 460.662775-67.584258 69.25941L511.142469 267.35128 130.527822 658.771017l-67.584258-69.25941L511.142469 128.848832z"  horiz-adv-x="1024" />

    
    <glyph glyph-name="youjianyidu" unicode="&#58888;" d="M511.999488 807.574065 88.425424 542.840658c0-60.392462 0-47.413869 0-105.892749l0-370.628202c0-58.478879 47.413869-105.892749 105.893772-105.892749l635.360586 0c58.478879 0 105.892749 47.413869 105.892749 105.892749L935.57253 436.946886c0 58.478879 0 47.982828 0 105.892749L511.999488 807.574065zM141.37231 66.319707 141.37231 453.492724 381.373429 288.490739 143.88862 51.00593C142.406872 55.883007 141.37231 60.958606 141.37231 66.319707zM829.679781 13.371798 194.319196 13.371798c-4.059456 0-7.971555 0.551562-11.772115 1.414209l243.197928 243.197928 86.254479-59.297524 86.254479 59.297524 243.196904-243.197928C837.651336 13.92336 833.738213 13.371798 829.679781 13.371798zM882.625644 66.319707c0-5.360078-1.033539-10.435677-2.51631-15.313777L642.625548 288.490739 882.625644 453.492724 882.625644 66.319707zM511.999488 260.733559 141.37231 516.366703 511.482719 745.871771l371.142925-229.504044L511.999488 260.733559z"  horiz-adv-x="1024" />

    
    <glyph glyph-name="xiazai" unicode="&#59229;" d="M514.749 155.587 270.784 494.656l133.695 0L404.479 771.328l220.864 0 0-276.672 133.695 0L515.069 155.587 514.749 155.587zM902.908 245.057l-84.8 0 0-162.11L206.527 82.947l0 162.11-85.44 0 0-248.384 781.885 0L902.972 245.057 902.908 245.057z"  horiz-adv-x="1024" />

    
    <glyph glyph-name="folderopen" unicode="&#58941;" d="M832-64l192 512-832 0-192-512zM128 512l-128-576 0 832 288.01024 0 128-128 416.01024 0 0-128z"  horiz-adv-x="1024" />

    
    <glyph glyph-name="tuichuquanping5" unicode="&#59221;" d="M400.595 550.635l-0.948 245.022c-0.42 18.881-16.018 30.215-34.956 30.637h-25.406c-18.88 0.42-33.874-16.018-33.457-34.881l1.061-133.251-168.117 165.421c-18.274 18.311-47.844 18.311-66.119 0-18.218-18.314-18.218-47.907 0-66.236l166.575-164.885-127.697-0.512c-18.88 0.477-36.394-12.606-39.26-34.899v-24.080c0.477-18.917 16.077-34.558 34.957-34.972l243.826 1.438c0.362-0.035 0.608-0.171 0.928-0.171l17.1-0.378c9.441-0.226 17.9 3.467 23.923 9.593 6.124 6.083 8.382 14.58 8.131 24.078l-1.821 17.138c0.001 0.335 1.27 0.562 1.27 0.945zM766.211 194.549l127.524 0.512c18.88-0.421 36.357 11.183 39.26 33.474v24.077c-0.478 18.922-16.134 34.558-34.957 35.037l-240.702-1.458c-0.378 0-0.605 0.151-0.967 0.151l-17.062 0.42c-9.441 0.226-17.95-3.469-23.98-9.611-6.159-6.030-8.361-14.559-8.173-24.057l1.881-17.1c0.033-0.42-1.234-0.661-1.234-0.986l0.986-241.248c0.477-18.863 16.078-30.162 34.957-30.576l24.017-0.037c18.827-0.433 33.874 16.055 33.403 34.941l-1.062 130.388 168.117-166.502c18.276-18.314 47.809-18.314 66.085 0 18.255 18.31 18.255 47.906 0 66.218l-168.095 166.366zM392.992 277.145c-6.028 6.14-14.541 9.834-23.923 9.61l-17.104-0.42c-0.346 0-0.566-0.151-0.948-0.151l-243.81 1.458c-18.881-0.478-34.503-16.112-34.956-35.034v-24.078c2.843-22.292 20.357-33.892 39.206-33.474l129.158-0.42-167.983-166.37c-18.234-18.255-18.234-47.906 0-66.218 18.256-18.314 47.845-18.314 66.102 0l168.137 165.418-1.079-131.185c-0.42-18.922 14.579-35.413 33.424-34.938h25.406c18.937 0.477 34.54 11.713 34.956 30.637l0.987 243.050c0 0.346-1.267 0.571-1.267 0.949l1.821 17.104c0.206 9.495-1.993 18.025-8.116 24.053zM615.434 508.441c6.030-6.123 14.541-9.819 23.965-9.553l17.060 0.378c0.378 0 0.608 0.132 0.986 0.19l244.19-1.457c18.88 0.434 34.482 16.078 34.956 34.994l0.058 24.078c-2.898 22.331-20.439 35.355-39.26 34.939l-129.573 0.511 166.483 164.893c18.31 18.235 18.31 47.83 0.054 66.143-18.276 18.311-47.809 18.311-66.084 0l-168.117-166.447 1.079 134.276c0.454 18.863-14.598 35.355-33.424 34.939h-24.017c-18.881-0.477-34.484-11.773-34.957-30.637l-0.967-245.075c0-0.378 1.251-0.608 1.251-0.948l-1.859-17.138c-0.192-9.499 2.007-17.991 8.173-24.078z"  horiz-adv-x="1024" />

    
    <glyph glyph-name="jinzhi3" unicode="&#58923;" d="M512 819.2c-120.1536 0-228.928-48.6912-307.6864-127.424-0.0128-0.0128-0.0256-0.0256-0.0384-0.0384s-0.0256-0.0256-0.0512-0.0384C125.4912 612.9408 76.8 504.1536 76.8 384c0-240.3584 194.8288-435.2 435.2-435.2 240.3584 0 435.2 194.8416 435.2 435.2C947.2 624.3712 752.3584 819.2 512 819.2zM865.6 384c0-82.9312-28.5568-159.2064-76.3776-219.52L292.48 661.2352c60.3008 47.7952 136.5888 76.3776 219.52 76.3776C707.3024 737.6 865.6 579.2896 865.6 384zM158.4 384c0 82.944 28.5568 159.2064 76.3776 219.52l496.7552-496.768c-60.3136-47.7952-136.576-76.3776-219.52-76.3776C316.7104 30.4 158.4 188.6976 158.4 384z"  horiz-adv-x="1024" />

    
    <glyph glyph-name="icon76" unicode="&#59255;" d="M515.75 174.76l-209.28 209.21 209.28 209.27c18.897 18.592 19.144 48.983 0.552 67.88-18.592 18.897-48.983 19.144-67.88 0.552-0.186-0.183-0.37-0.367-0.552-0.552l-242-242c-0.4-0.38-0.81-0.75-1.21-1.15-18.663-18.802-18.663-49.138 0-67.94 0.39-0.39 0.8-0.77 1.21-1.15l242-242c18.592-18.897 48.983-19.144 67.88-0.552 18.897 18.592 19.144 48.983 0.552 67.88C516.12 174.393 515.936 174.577 515.75 174.76zM609.73 383.97 819 593.24c18.897 18.592 19.144 48.983 0.552 67.88-18.592 18.897-48.983 19.144-67.88 0.552-0.186-0.183-0.37-0.367-0.552-0.552l-242-242c-0.4-0.38-0.81-0.75-1.21-1.15-18.663-18.802-18.663-49.138 0-67.94 0.39-0.39 0.8-0.77 1.21-1.15l242-242c18.897-18.592 49.288-18.345 67.88 0.552 18.379 18.68 18.379 48.648 0 67.328L609.73 383.97z"  horiz-adv-x="1024" />

    
    <glyph glyph-name="icon75" unicode="&#59259;" d="M819.34 417.97c-0.39 0.39-0.8 0.77-1.21 1.15l-242 242c-18.897 18.592-49.288 18.345-67.88-0.552-18.378-18.68-18.378-48.648 0-67.328l209.28-209.21L508.25 174.76c-18.592-18.897-18.345-49.288 0.552-67.88 18.68-18.379 48.648-18.379 67.328 0l242 242c0.4 0.38 0.81 0.75 1.21 1.15C838.002 368.832 838.002 399.168 819.34 417.97zM516.09 350.03c18.663 18.802 18.663 49.138 0 67.94-0.39 0.39-0.8 0.77-1.21 1.15l-242 242c-18.592 18.897-48.983 19.144-67.88 0.552-18.897-18.592-19.144-48.983-0.552-67.88 0.183-0.186 0.367-0.37 0.552-0.552l209.27-209.21-209.27-209.27c-18.897-18.592-19.144-48.983-0.552-67.88 18.592-18.897 48.983-19.144 67.88-0.552 0.186 0.183 0.37 0.367 0.552 0.552l242 242C515.28 349.26 515.69 349.63 516.09 350.03z"  horiz-adv-x="1024" />

    
    <glyph glyph-name="xlsx" unicode="&#58884;" d="M613.456 741.472v-55.856h135.264v-100.544h-135.264v-22.336h135.264v-100.544h-135.264v-22.336h135.264v-111.712h-135.264v-22.336h135.264v-100.544h-135.264v-22.336h135.264v-100.544h-135.264v-55.856h394.544v714.944h-394.544zM929.088 82.384h-157.824v100.544h157.824v-100.544zM929.088 205.264h-157.824v100.544h157.824v-100.544zM929.088 328.144h-157.824v111.712h157.824v-111.712zM929.088 462.192h-157.824v100.544h157.824v-100.544zM929.088 585.088h-157.824v100.544h157.824v-100.544zM16 15.344l574.912-100.544v938.384l-574.912-100.544v-737.296zM153.616 549.504h102.176l53.136-103.104 51.696 103.104h101.152l-93.44-162.304 102.24-172.816h-104.224l-59.28 107.664-59.28-107.664h-103.584l103.536 174.656-94.128 160.464z"  horiz-adv-x="1024" />

    
    <glyph glyph-name="pptx" unicode="&#58885;" d="M16 4.96l581.52-103.376v964.832l-581.52-103.376v-758.080zM182.944 586.976h125.776c27.392 0 47.904-9.328 61.552-28.016 13.632-18.672 20.464-45.248 20.464-79.728 0-35.44-7.424-63.136-22.304-83.072-14.864-19.952-37.552-29.92-68.064-29.92h-41.424v-130.24h-76l-0 350.976zM308.208 448.224c5.904 7.264 8.848 16.56 8.848 27.888 0 11.008-2.56 20.352-7.68 28.016-5.12 7.664-14.752 11.488-28.896 11.488h-21.552v-78.288h18.544c14.592 0 24.832 3.632 30.736 10.896zM620.32 533.312h193.84l-0-149.312h-193.84v-57.424h193.84v-45.952h-193.84v-57.424h193.84v-45.936h-193.84v-57.424h193.84v-45.952h-193.84v-57.424h273.648l-0 585.776h-273.648v-68.928zM757.152 751.552l171.040-114.864v-402.016h79.808v516.88h-250.848z"  horiz-adv-x="1024" />

    
    <glyph glyph-name="youjiantou" unicode="&#59130;" d="M329.35724-63.694415l-68.071352 68.759013 375.183961 378.930285-375.183961 378.933356 68.071352 68.766176 433.355849-437.628152v-20.135596L329.35724-63.694415z"  horiz-adv-x="1024" />

    
    <glyph glyph-name="rar" unicode="&#58969;" d="M761.956402 757.122086l71.291126 0 0-30.318274-71.291126 0 0 30.318274ZM690.664252 711.739842l71.29215 0 0-30.336693-71.29215 0 0 30.336693ZM761.956402 662.08226l71.291126 0 0-30.336693-71.291126 0 0 30.336693ZM761.956402 566.237097l71.291126 0 0-30.328507-71.291126 0 0 30.328507ZM690.664252 614.936873l71.29215 0 0-30.32646-71.29215 0 0 30.32646ZM761.256466 506.48161c-38.988678 0-57.534931-32.595112-57.534931-72.797421l-13.057283-121.948471c0-40.202309 31.603536-72.807654 70.592214-72.807654 38.990724 0 70.573794 32.595112 70.573794 72.807654L818.809816 433.684189C818.809816 473.886498 800.24719 506.48161 761.256466 506.48161zM784.644966 270.923522l-46.74016 0 0 101.79564 46.74016 0L784.644966 270.923522zM302.742207 357.675658 346.689787 357.675658 325.06443 441.216685ZM510.60371 420.733329c0.463554 24.181555-8.722592 35.952553-27.561509 35.341644l-32.508131 0 0-66.032398 32.508131 0C502.354905 389.416316 511.543097 399.64725 510.60371 420.733329zM204.938452 417.638876c0.451274 23.557344-8.49849 35.025445-26.850317 34.429885l-31.67005 0 0-64.32963 31.67005 0C196.902493 387.130269 205.853281 397.097191 204.938452 417.638876zM956.359489 810.638526 656.509634 810.638526c-1.326194 0-2.625783-0.130982-3.943791-0.196473l0 85.549761L0.025071 815.45519l0-858.077343 652.540773-82.616989 0 88.172474c1.318008-0.074701 2.607363-0.196473 3.943791-0.196473l299.849855 0c35.07354 0 63.604112 29.428004 63.604112 65.58317L1019.963601 745.055356C1019.963601 781.211545 991.433029 810.638526 956.359489 810.638526zM208.380827 284.448452l-41.308494 75.202171-20.654247 0 0-75.202171-32.35873 0L114.059355 479.250626l70.913529 0c35.801104 0 53.701657-20.243905 53.701657-60.705108 0.452298-34.429885-11.704483-53.457088-36.488761-57.08161l44.062189-77.015455L208.380827 284.448452zM366.919365 284.232536l-12.55689 44.984181-58.597114 0-12.55689-44.984181-34.879113 0 56.50447 197.377815 40.459157 0 56.50447-197.377815L366.919365 284.232536zM514.137158 284.016621l-42.4024 77.193509-21.200688 0 0-77.193509L417.318839 284.016621 417.318839 483.975193l72.790258 0c36.748678 0 55.123018-20.781136 55.123018-62.312709 0.463554-35.341644-12.014542-54.87231-37.455777-58.593021l45.228749-79.053865L514.137158 284.015597zM983.619125 28.309795c0-15.495802-12.230458-28.105903-27.259636-28.105903L656.509634 0.203892c-1.344614 0-2.644202 0.214893-3.943791 0.412389L652.565844 772.741707c1.299588 0.19545 2.589967 0.412389 3.943791 0.412389l299.849855 0c15.029178 0 27.259636-12.612148 27.259636-28.10795L983.619125 28.309795z"  horiz-adv-x="1024" />

    
    <glyph glyph-name="txt" unicode="&#58972;" d="M639.888716-39.589098c1.363033-0.074701 2.69639-0.196473 4.077843-0.196473l310.015298 0c36.262612 0 69.988468 29.506798 69.988468 65.761224l0 718.672431c0 36.253402-33.725856 65.761224-69.988468 65.761224L643.966559 810.409307c-1.372243 0-2.71481-0.130982-4.077843-0.196473l0 85.781026-638.844952-81.797327L1.043764-46.202673l638.844952-81.797327L639.888716-39.589098 639.888716-39.589098zM643.966559 772.822548l310.015298 0c15.53878 0 29.206972-12.645917 29.206972-28.183674l0-718.674477c0-15.537757-13.668192-28.182651-29.206972-28.182651L643.966559-2.218254c-1.391685 0-2.734252 0.214893-4.077843 0.413412L639.888716 227.71067l288.586414 0c6.914425 0 12.532331 5.607673 12.532331 12.512888 0 6.914425-5.617906 12.523121-12.532331 12.523121L639.888716 252.74668l0 76.770887 288.586414 0c6.914425 0 12.532331 5.607673 12.532331 12.522098 0 6.915448-5.617906 12.512888-12.532331 12.512888L639.888716 354.552553l0 74.385579 288.586414 0c6.914425 0 12.532331 5.607673 12.532331 12.512888 0 6.914425-5.617906 12.512888-12.532331 12.512888L639.888716 453.963909l0 75.099842 155.251705 0c6.905215 0 12.532331 5.607673 12.532331 12.512888 0 6.914425-5.626093 12.512888-12.532331 12.512888L639.888716 554.089527 639.888716 772.409135C641.23333 772.605609 642.566687 772.822548 643.966559 772.822548L643.966559 772.822548zM211.211781 445.980138l-50.41994-0.807382 0-157.779251-40.968759 1.041717 0 156.042715-47.301951-0.799196 0 36.159259 138.69986 3.635778 0-37.493639L211.211781 445.980138 211.211781 445.980138zM341.578925 282.86541 323.540227 320.076619c-7.317604 14.259658-12.014542 24.846699-17.557747 36.590067l-0.59249 0.037862c-4.095239-11.695273-9.009116-22.11347-15.096716-36.093768l-16.130247-36.036463-49.263613 1.212608 55.305165 100.257623-53.379318 97.84264 49.668839 1.286286 16.956048-36.318893c5.852241-12.183386 10.183862-22.01114 14.861357-33.359515l0.57407-0.008186c4.716381 12.982582 8.51077 22.047979 13.508557 33.856838l16.80767 37.474197 52.288482 1.399872-57.004863-100.914581 60.057361-105.762967L341.578925 282.86541 341.578925 282.86541zM571.215186 451.964384l-60.25588-0.995669 0-172.349992-48.804152 1.249447L462.155154 450.141891l-56.272181-0.939388L405.882972 488.593337l165.341424 4.349017 0-40.978992L571.215186 451.963361 571.215186 451.964384z"  horiz-adv-x="1024" />

    
    <glyph glyph-name="bianji" unicode="&#58893;" d="M367.36 420.48a7.488 7.488 0 0 1-1.408-2.56l-44.992-170.688a30.08 30.08 0 0 1 7.168-28.16 27.648 27.648 0 0 1 27.2-7.36L519.04 257.92c0.256 0 0.384-0.192 0.64-0.192 1.856 0 3.712 0.64 5.12 2.176l437.824 452.992c12.992 13.44 20.16 31.808 20.16 51.84 0 22.592-9.28 45.248-25.6 61.952l-41.28 42.88A84.352 84.352 0 0 1 855.936 896c-19.328 0-37.056-7.36-50.112-20.8l-437.76-453.12c-0.448-0.448-0.32-1.088-0.64-1.6z m552.448 336.768l-43.52-44.928-70.528 74.112 42.88 44.352c6.784 7.04 19.904 6.016 27.712-2.048l41.408-42.88a23.68 23.68 0 0 0 6.784-16.256 17.6 17.6 0 0 0-4.736-12.352zM445.248 413.44l315.968 326.912 70.528-74.176L516.48 339.84 445.248 413.376z m-57.6-132.608l22.912 86.72 60.864-62.976-83.712-23.68zM864 64V464a48 48 0 0 0 96 0V64a192 192 0 0 0-192-192H192a192 192 0 0 0-192 192V640a192 192 0 0 0 192 192h336a48 48 0 0 0 0-96H192A96 96 0 0 1 96 640v-576A96 96 0 0 1 192-32h576a96 96 0 0 1 96 96z"  horiz-adv-x="1024" />

    
    <glyph glyph-name="Switch2" unicode="&#58953;" d="M45.705 382.319c0-128.776 104.339-233.115 233.115-233.115h466.36c128.776 0 233.115 104.339 233.115 233.115 0 128.776-104.339 233.115-233.115 233.115h-466.36c-128.776 0-233.115-104.339-233.115-233.115zM66.392 382.319c0 117.269 95.16 212.428 212.428 212.428s212.428-95.16 212.428-212.428c0-117.269-95.16-212.428-212.428-212.428-117.269-0-212.428 95.030-212.428 212.428z"  horiz-adv-x="1024" />

    
    <glyph glyph-name="Switch1" unicode="&#58954;" d="M745.18 615.434h-466.36c-128.776 0-233.115-104.339-233.115-233.115 0-128.776 104.339-233.115 233.115-233.115h466.36c128.776 0 233.115 104.339 233.115 233.115 0 128.776-104.339 233.115-233.115 233.115zM745.18 169.891c-117.269 0-212.428 95.16-212.428 212.428s95.030 212.428 212.428 212.428c117.269 0 212.428-95.16 212.428-212.428s-95.16-212.428-212.428-212.428z"  horiz-adv-x="1024" />

    
    <glyph glyph-name="tanhao" unicode="&#59024;" d="M512 896C230.4 896 0 665.6 0 384s230.4-512 512-512 512 230.4 512 512-230.4 512-512 512z m0-953.6c-243.2 0-441.6 198.4-441.6 441.6S268.8 825.6 512 825.6c243.2 0 441.6-198.4 441.6-441.6 0-243.2-198.4-441.6-441.6-441.6zM460.8 102.4c-12.8 12.8-19.2 32-19.2 51.2 0 19.2 6.4 38.4 19.2 51.2 12.8 12.8 32 19.2 51.2 19.2 19.2 0 38.4-6.4 51.2-19.2 12.8-12.8 19.2-32 19.2-51.2 0-19.2-6.4-38.4-19.2-51.2-12.8-12.8-32-19.2-51.2-19.2-19.2 0-38.4 6.4-51.2 19.2zM454.4 320c0-19.2 6.4-32 12.8-44.8s25.6-12.8 44.8-12.8c19.2 0 32 6.4 44.8 19.2 6.4 12.8 12.8 25.6 12.8 38.4V627.2c0 19.2-6.4 32-19.2 38.4-6.4 12.8-19.2 19.2-38.4 19.2s-32-6.4-38.4-19.2c-12.8-6.4-19.2-19.2-19.2-38.4V320z"  horiz-adv-x="1024" />

    
    <glyph glyph-name="shangxiajiantou" unicode="&#58913;" d="M681.6 320H342.4c-19.2 0-32-32-16-48l169.6-198.4c9.6-12.8 25.6-12.8 35.2 0l169.6 198.4c12.8 16 0 48-19.2 48z m-339.2 128h336c19.2 0 32 32 16 48l-169.6 198.4c-9.6 12.8-25.6 12.8-35.2 0L320 496c-9.6-16 3.2-48 22.4-48z"  horiz-adv-x="1024" />

    


  </font>
</defs>
</svg>
